<svg width="14" height="17" viewBox="0 0 14 17" fill="none" xmlns="http://www.w3.org/2000/svg">
<path d="M12.6365 4.62012V7.43262C12.6365 9.77637 11.8324 10.7139 9.82198 10.7139H9.19014V8.63797C9.19014 6.29422 8.38599 5.35672 6.3756 5.35672H4.59497V4.62012C4.59497 2.27637 5.39913 1.33887 7.40951 1.33887H9.82198C11.8324 1.33887 12.6365 2.27637 12.6365 4.62012Z" stroke="#4089DD" stroke-width="1.5" stroke-linecap="round" stroke-linejoin="round"/>
<path d="M10.0109 7.56641V10.3789C10.0109 12.7227 9.20675 13.6602 7.19637 13.6602H4.7839C2.77352 13.6602 1.96936 12.7227 1.96936 10.3789V7.56641C1.96936 5.22266 2.77352 4.28516 4.7839 4.28516H7.19637C9.20675 4.28516 10.0109 5.22266 10.0109 7.56641Z" fill="#E0EEFF" stroke="#4089DD" stroke-width="1.5" stroke-linecap="round" stroke-linejoin="round"/>
</svg>
